<?xml version="1.0" standalone="no"?>
<!DOCTYPE svg PUBLIC "-//W3C//DTD SVG 20010904//EN"
 "http://www.w3.org/TR/2001/REC-SVG-20010904/DTD/svg10.dtd">
<svg version="1.0" xmlns="http://www.w3.org/2000/svg"
 width="1024.000000pt" height="600.000000pt" viewBox="0 0 1024.000000 600.000000"
 preserveAspectRatio="xMidYMid meet">
<metadata>
Created by potrace 1.16, written by Peter Selinger 2001-2019
</metadata>
<g transform="translate(0.000000,600.000000) scale(0.100000,-0.100000)"
fill="#000000" stroke="none">
<path d="M7160 2087 l0 -293 -27 1 -28 0 -3 138 c-1 80 -7 137 -12 137 -6 0
-10 12 -10 26 0 33 -60 90 -110 104 -115 32 -259 -7 -294 -80 -11 -22 -23 -40
-28 -40 -4 0 -8 -15 -8 -34 0 -38 12 -46 68 -46 l37 -1 -30 -13 c-71 -32 -104
-115 -84 -215 9 -49 16 -60 52 -86 34 -24 54 -30 108 -33 58 -4 73 -1 113 23
25 15 46 22 46 17 0 -22 88 -45 143 -38 28 4 96 7 150 6 l97 -1 0 361 0 360
-90 0 -90 0 0 -293z"/>
<path d="M2915 2337 c-3 -6 -4 -161 -3 -342 l3 -330 85 0 85 0 3 140 3 140 43
-133 c24 -73 47 -137 53 -143 6 -6 39 -9 74 -7 l64 3 47 140 47 140 3 -140 3
-140 85 0 85 0 0 340 0 340 -106 3 c-77 2 -109 -1 -116 -10 -5 -7 -31 -83 -57
-168 -62 -204 -56 -188 -65 -170 -5 8 -30 85 -56 170 -26 85 -52 161 -58 168
-14 17 -216 17 -222 -1z"/>
<path d="M4915 2337 c-3 -6 -4 -161 -3 -342 l3 -330 190 0 c181 0 192 1 235
24 127 68 181 163 181 321 0 175 -73 278 -230 326 -62 19 -369 20 -376 1z
m340 -177 c49 -27 70 -74 70 -155 0 -118 -52 -175 -164 -178 l-56 -2 -3 170
c-1 93 0 175 3 183 7 18 107 6 150 -18z"/>
<path d="M3754 2187 c-52 -25 -87 -67 -103 -125 -13 -43 3 -62 52 -62 l42 0
-34 -17 c-54 -27 -85 -83 -85 -156 1 -114 52 -169 166 -175 59 -4 73 -1 113
23 41 24 48 25 58 11 23 -29 64 -36 191 -29 69 3 129 9 134 12 5 3 28 34 50
69 l41 64 46 -72 45 -71 93 3 c73 2 92 6 95 19 1 8 -36 70 -83 137 l-85 122
80 112 c45 61 79 119 78 127 -3 13 -22 17 -96 19 l-92 3 -38 -60 c-20 -33 -39
-60 -42 -61 -3 0 -22 27 -43 60 l-37 60 -89 0 c-57 0 -92 -4 -97 -11 -7 -12
32 -97 53 -114 7 -5 33 -39 57 -74 l45 -63 -51 -73 c-45 -65 -54 -72 -82 -71
l-31 2 -5 144 c-6 166 -15 193 -81 237 -35 23 -54 27 -127 30 -76 4 -94 1
-138 -20z"/>
<path d="M5698 2195 c-62 -23 -106 -64 -135 -123 -24 -49 -28 -69 -27 -142 1
-125 46 -209 138 -257 60 -32 266 -25 266 8 0 5 6 9 14 9 22 0 77 59 97 105
22 47 26 195 7 257 -14 46 -69 109 -118 134 -47 24 -190 29 -242 9z m158 -156
c20 -22 32 -127 20 -174 -10 -37 -42 -65 -76 -65 -23 0 -35 7 -50 33 -36 58
-21 203 22 220 29 12 66 6 84 -14z"/>
<path d="M6333 2198 c-18 -6 -33 -16 -33 -21 0 -6 -6 -3 -13 7 -10 14 -26 16
-92 14 l-80 -3 0 -265 0 -265 90 0 90 0 3 173 c2 156 4 174 22 192 24 24 49
25 76 6 17 -13 19 -31 24 -193 l5 -178 70 -3 c124 -5 115 -20 115 188 0 113
-4 180 -10 180 -5 0 -10 18 -10 39 0 22 -6 46 -13 53 -7 7 -16 21 -20 31 -4 9
-15 20 -24 24 -10 4 -21 11 -25 17 -10 14 -136 17 -175 4z"/>
<path d="M7334 946 c-75 -75 -24 -186 84 -186 50 0 88 29 103 79 22 73 -34
141 -117 141 -28 0 -44 -8 -70 -34z m124 4 c56 -34 65 -99 20 -147 -56 -60
-158 -20 -158 61 0 40 20 74 54 90 40 20 45 20 84 -4z"/>
</g>
</svg>
